# xmcd
#
# Track frame offsets: 
#        150
#        29270
#        48702
#        71087
#        86015
#        111109
#        140444
#        154784
#        171855
#        193778
#        216147
#        240154
#        267431
#        284438
#        321903
#
# Disc length: 4597 seconds
#
# Revision: 0
# Processed by: cddbd v1.5.2PL0 Copyright (c) Steve Scherf et al.
# Submitted via: ExactAudioCopy v0.99pb3
#
DISCID=df11f30f
DTITLE=Bongo Joe and Little Steve-O - Live at the Winery
DYEAR=2009
DGENRE=Blues
TTITLE0=Ain't no Sunshine
TTITLE1=Help Me
TTITLE2=Leave My Girl Alone
TTITLE3=Nobody Knows You When You're Down and Out
TTITLE4=Black Cat Bone
TTITLE5=Driftin' Blues
TTITLE6=Cold Shot
TTITLE7=Melissa
TTITLE8=Little Red Rooster
TTITLE9=Mean Old World
TTITLE10=Freedom
TTITLE11=Three O'Clock Blues
TTITLE12=Bring it on Home
TTITLE13=Catfish Blues
TTITLE14=In the Air Tonight
EXTD=
EXTT0=
EXTT1=
EXTT2=
EXTT3=
EXTT4=
EXTT5=
EXTT6=
EXTT7=
EXTT8=
EXTT9=
EXTT10=
EXTT11=
EXTT12=
EXTT13=
EXTT14=
PLAYORDER=
